<svg xmlns="http://www.w3.org/2000/svg" width="45" height="43" viewBox="0 0 45 43">
    <g fill="none" fill-rule="evenodd">
        <path fill="#FFD400" d="M44.12 14.66c-.392-.49-.88-.685-1.566-.685h-.88L27.294.489a.946.946 0 0 0-1.37 0 .944.944 0 0 0 0 1.368l12.815 12.02H6.261l12.815-12.02a.944.944 0 0 0 0-1.368.946.946 0 0 0-1.37 0L3.327 13.877h-.88c-.587 0-1.174.293-1.566.684-.39.489-.489 1.075-.39 1.662l5.282 24.236c.293 1.368 1.467 2.346 2.837 2.346h27.684c1.37 0 2.544-.978 2.837-2.346l5.283-24.236c.196-.587 0-1.173-.293-1.564z"/>
        <path fill="#FFF" stroke="#FFF" stroke-width="3" d="M22.5 22.77c-.587 0-.978.391-.978.978v8.013c0 .587.391.978.978.978s.978-.391.978-.978v-8.013c0-.587-.391-.978-.978-.978zM13.696 22.77c-.587 0-.979.391-.979.978v8.013c0 .587.392.978.979.978s.978-.391.978-.978v-8.013c0-.587-.391-.978-.978-.978zM31.304 22.77c-.587 0-.978.391-.978.978v8.013c0 .587.391.978.978.978s.979-.391.979-.978v-8.013c0-.587-.392-.978-.979-.978z"/>
    </g>
</svg>
