<svg xmlns="http://www.w3.org/2000/svg" width="63" height="63" viewBox="0 0 63 63">
    <g fill="#FFF" fill-rule="evenodd">
        <path d="M43.971 17.244L31.5 29.718 19.026 17.244l-1.782 1.782L29.718 31.5 17.244 43.971l1.782 1.785L31.5 33.282l12.471 12.474 1.782-1.785L33.282 31.5l12.471-12.474z"/>
        <path d="M31.5 0C14.102 0 0 14.102 0 31.5 0 48.896 14.102 63 31.5 63S63 48.896 63 31.5C63 14.102 48.898 0 31.5 0zm0 60.48c-15.947 0-28.98-13.033-28.98-28.98 0-15.95 13.033-28.98 28.98-28.98 15.947 0 28.98 13.03 28.98 28.98 0 15.947-13.033 28.98-28.98 28.98z"/>
    </g>
</svg>
