<svg xmlns="http://www.w3.org/2000/svg" width="60" height="66" viewBox="0 0 60 66">
    <g fill="#000" fill-rule="evenodd">
        <path d="M53.101 45.933l-11.397-2.56C40.014 42.965 38 42.136 38 40.5v-3.211c1.59-1.395 2.934-3.321 3.813-5.476a32.238 32.238 0 0 0 1.227-3.623c1.224-.716 1.938-2.245 1.938-3.482 0-1.276-.516-1.832-.963-2.259-.001-.857-.005-1.175-.008-1.494l-.002-.185.01-.003V13c0-6.658-5.416-12.074-12.074-12.074h-3.686C21.496.926 15.997 6.342 15.997 13v3.541c-.026.62-.021 1.244 0 1.871v.357c-.004.49-.003.849 0 1.131V21h.012c.001.365-.005.836-.026 1.626-.482.453-.983 1.013-.983 2.339 0 1.346.968 2.705 2.289 3.32.286 1.092.612 2.226.991 3.447.702 2.258 1.982 4.189 3.72 5.617v3.15c0 1.894-2.509 2.703-3.593 2.965L6.368 46.435C2.56 47.354 0 50.395 0 54v11a1 1 0 0 0 1 1h58a1 1 0 0 0 1-1V53.416c0-3.426-2.831-6.502-6.899-7.483zm-12.399-.772l-4.757 2.719-3.272-1.468c-.035-.022-.062-.053-.1-.072a5.168 5.168 0 0 1 1.421-.932l3.407-1.492a.987.987 0 0 0 .281-.197c.762.6 1.774 1.087 3.02 1.442zM24 40.5v-1.653c2.199 1.423 4.175 2.139 5.992 2.153h.059c2.217 0 4.157-.949 5.949-2.162V40.5c0 .602.136 1.161.386 1.677l-3.194 1.399a7.03 7.03 0 0 0-2.53 1.871l-7.031-3.258A4.012 4.012 0 0 0 24 40.5zm4.256-37.574h3.686c5.555 0 10.074 4.52 10.074 10.074v1.295a34.96 34.96 0 0 0-1.986-1.014 1 1 0 1 0-.846 1.812 38.153 38.153 0 0 1 2.832 1.494v2.604c-1.932.286-3.369-.54-5.014-1.56-1.757-1.089-3.748-2.323-6.909-2.323h-.002c-3.208.024-5.575 1.121-7.663 2.089-1.532.71-2.892 1.341-4.43 1.538v-2.356C21.76 14.414 24.44 13 30 13c1.93 0 3.751.244 5.568.746a.999.999 0 1 0 .533-1.927A22.878 22.878 0 0 0 30 11c-5.555 0-8.549 1.332-12.002 3.276V13c0-5.461 4.697-10.074 10.258-10.074zM20.19 31.139a74.215 74.215 0 0 1-1.093-3.851 1.002 1.002 0 0 0-.701-.718c-.73-.204-1.396-.969-1.396-1.605 0-.556.061-.612.454-.977l.212-.199a.994.994 0 0 0 .304-.689c.033-1.124.041-1.713.04-2.158 1.962-.207 3.635-.977 5.259-1.729 1.997-.926 4.063-1.884 6.906-1.904 2.51 0 4.095.982 5.773 2.023 1.525.945 3.102 1.923 5.245 1.923.267 0 .541-.027.816-.058.003.316.006.732.006 1.677 0 .263.104.514.287.701.091.092.179.176.264.256.357.338.412.391.412.877 0 .74-.544 1.633-1.12 1.837a1 1 0 0 0-.633.69 30.503 30.503 0 0 1-1.264 3.822c-.822 2.013-2.097 3.784-3.59 4.988-.042.034-.063.084-.098.124C33.968 37.919 32.085 39 30.051 39h-.043c-1.771-.015-3.827-.928-6.278-2.781-.045-.052-.075-.114-.131-.156-1.602-1.199-2.781-2.901-3.409-4.924zm2.191 12.622c.063.052.121.11.199.146l4.973 2.304-3.51 1.662-4.604-2.631c1.208-.353 2.197-.855 2.942-1.481zM58 64H2V54c0-2.664 1.943-4.923 4.842-5.622l9.815-2.422 6.847 3.912a.993.993 0 0 0 .924.036l5.025-2.38a7.068 7.068 0 0 0-.454 2.466v9.759a1 1 0 1 0 2 0V49.99c0-.702.141-1.359.389-1.961l4.203 1.884a1.009 1.009 0 0 0 .905-.045l7-4c.016-.009.024-.024.04-.034l9.111 2.046c3.102.749 5.353 3.077 5.353 5.536V64z"/>
        <path d="M30.007 10c2.167 0 4.5-.782 4.5-2.5S32.174 5 30.007 5s-4.5.782-4.5 2.5 2.333 2.5 4.5 2.5zm0-3c1.235 0 2.021.293 2.357.5-.337.206-1.122.5-2.357.5s-2.021-.294-2.357-.5c.336-.207 1.121-.5 2.357-.5z"/>
        <circle cx="33.5" cy="53.499" r="1"/>
        <circle cx="33.5" cy="58.499" r="1"/>
        <path d="M25.217 31.835a.999.999 0 0 0 .016 1.414C26.352 34.346 28.135 35 30 35c1.865 0 3.648-.654 4.768-1.751a1 1 0 1 0-1.398-1.43C32.614 32.559 31.354 33 30 33s-2.614-.441-3.369-1.181a1 1 0 0 0-1.414.016z"/>
        <circle cx="24.5" cy="23.5" r="1.5"/>
        <path d="M35.5 25c.827 0 1.501-.674 1.501-1.501 0-.826-.674-1.5-1.501-1.5-.826 0-1.5.674-1.5 1.5 0 .827.674 1.501 1.5 1.501z"/>
    </g>
</svg>
