<svg xmlns="http://www.w3.org/2000/svg" width="46" height="44" viewBox="0 0 46 44">
    <g fill="#000" fill-rule="evenodd">
        <path d="M45.1 15c-.4-.5-.9-.7-1.6-.7h-.9L27.9.5c-.4-.4-1-.4-1.4 0-.4.4-.4 1 0 1.4l13.1 12.3H6.4L19.5 1.9c.4-.4.4-1 0-1.4-.4-.4-1-.4-1.4 0L3.4 14.2h-.9c-.6 0-1.2.3-1.6.7-.4.5-.5 1.1-.4 1.7l5.4 24.8c.3 1.4 1.5 2.4 2.9 2.4h28.3c1.4 0 2.6-1 2.9-2.4l5.4-24.8c.2-.6 0-1.2-.3-1.6zm-7 26c-.1.5-.5.8-1 .8H8.9c-.5 0-.9-.3-1-.8L2.5 16.2h41L38.1 41z"/>
        <path d="M23 23.3c-.6 0-1 .4-1 1v8.2c0 .6.4 1 1 1s1-.4 1-1v-8.2c0-.6-.4-1-1-1zM14 23.3c-.6 0-1 .4-1 1v8.2c0 .6.4 1 1 1s1-.4 1-1v-8.2c0-.6-.4-1-1-1zM32 23.3c-.6 0-1 .4-1 1v8.2c0 .6.4 1 1 1s1-.4 1-1v-8.2c0-.6-.4-1-1-1z"/>
    </g>
</svg>
