<svg xmlns="http://www.w3.org/2000/svg" xmlns:xlink="http://www.w3.org/1999/xlink" width="28" height="27" viewBox="0 0 28 27">
    <defs>
        <ellipse id="a" cx="13.472" cy="13.472" rx="13.472" ry="13.472"/>
        <mask id="b" width="26.944" height="26.944" x="0" y="0" fill="#fff">
            <use xlink:href="#a"/>
        </mask>
    </defs>
    <g fill="none" fill-rule="evenodd" transform="translate(.444)">
        <path d="M0 0h26.944v26.944H0z"/>
        <use stroke="#000" stroke-width="2" mask="url(#b)" xlink:href="#a"/>
        <path fill="#000" d="M17.229 7.348H9.715a2.37 2.37 0 0 0-2.367 2.367v7.514a2.37 2.37 0 0 0 2.367 2.367h7.514a2.37 2.37 0 0 0 2.367-2.367V9.715a2.37 2.37 0 0 0-2.367-2.367zm.679 1.413l.27-.002v2.076l-2.069.007-.007-2.076 1.806-.005zm-6.184 3.454a2.153 2.153 0 0 1 1.748-.899c.72 0 1.356.356 1.748.899.255.354.408.788.408 1.257a2.158 2.158 0 0 1-2.156 2.155 2.158 2.158 0 0 1-2.155-2.155c0-.47.153-.903.407-1.257zm6.679 5.014c0 .647-.527 1.174-1.174 1.174H9.715a1.175 1.175 0 0 1-1.173-1.174v-5.014h1.829a3.325 3.325 0 0 0-.247 1.257 3.353 3.353 0 0 0 3.348 3.35 3.353 3.353 0 0 0 3.35-3.35c0-.444-.09-.868-.248-1.257h1.829v5.014z"/>
    </g>
</svg>
