<svg xmlns="http://www.w3.org/2000/svg" width="1200" height="630" viewBox="0 0 1200 630">
    <g fill="none" fill-rule="evenodd">
        <path fill="#FFF" d="M0 0h1200v630H0z"/>
        <path fill="#000" d="M698.791 356.823c.214-.64.428-1.28.627-1.926.689-2.24 2.116-3.203 4.53-3.035 2.689.184 5.395.109 8.095.087 8.183-.054 9.221-1.866 6.419-9.371-2.767-7.397-7.105-12.475-15.459-13.05-2.113-.145-3.254-1.259-3.757-3.393-.981-4.17-3.703-7.541-5.563-11.31-.614-1.244-1.65-2.056-2.963-2.62-3.425-1.468-5.105-.282-4.786 3.502.545 6.39.476 12.797.454 19.203-.03 9.935-.009 19.87-.009 30.213 7.61-.018 10.266-1.854 12.412-8.3zm-181.683-41.026c.31-5.172-.647-6.813-6.981-5.467-2.77.59-4.489 2.306-5.413 4.805-.758 2.044-1.508 4.172-1.74 6.316-.626 5.707-.743 6.355-6.77 5.837-3.387-.29-6.21 1.08-8.52 3.63-2.77 3.062-4.81 6.53-5.942 10.474-1.337 4.663-.166 6.3 4.66 6.472 3.877.139 7.767-.05 11.647.015 4.67.082 5.09.407 5.585 5.202.484 4.697 2.501 8.291 6.58 10.757 1.975 1.198 3.974 1.975 6.19.915 2.225-1.063 1.499-3.206 1.454-4.95-.241-9.609-1.505-19.182-.813-27.46 0-6.422-.238-11.5.063-16.546zm3.88 21.446V315.97c0-4.667 1.03-5.723 5.558-5.582 18.92.587 37.811-.785 56.72-.945 11.144-.096 22.292.304 33.44.232 13.845-.09 27.68.855 41.532.183 6.234-.3 12.442 1.289 18.716.609 2.417-.265 3.36 1.225 3.516 3.317.15 2.02.147 4.05.126 6.075-.138 11.831.937 23.614 1.346 35.424.054 1.52.187 3.053.057 4.558-.367 4.371-2.896 6.996-7.3 7.595-7.388 1.006-14.811 1.253-22.253.973-4.73-.178-9.444.075-14.164.16-7.069.123-14.153-.437-21.227-.73-1.851-.078-3.724-.514-5.542-.328-11.801 1.217-23.68 1.247-35.442.515-16.175-1.005-32.399-.457-48.54-2.044-5.052-.497-6.06-1.349-6.26-6.44-.132-3.374-.032-6.755-.035-10.132-.003-4.055 0-8.11 0-12.166h-.247zm-54.383 23.262c4.362-14.552 10.639-27.886 23.322-37.233 2.249-1.659 5.127-3.52 3.314-6.752-1.728-3.086-4.816-3.82-8.504-3.188-9.164 1.571-16.437 6.288-22.834 12.713-.921.924-1.876 2.64-3.354 1.255-1.37-1.285-.027-2.673.924-3.52 4.179-3.717 8.412-7.378 12.747-10.912 3.01-2.454 1.965-3.932-1.072-4.6-5.792-1.276-11.052.093-15.823 3.676-4.705 3.531-8.508 7.944-12.527 12.162-.568.596-1.893 1.297-2.33 1.042-1.454-.864-.46-2.05.226-2.878 2.23-2.686 4.627-5.236 6.846-7.936 1.054-1.282 3.736-2.357 2.158-4.299-1.122-1.385-3.516-.608-5.286.114-6.18 2.52-11.199 6.563-15.498 11.636-1.734 2.044-4.094 6.463-5.716 5.024-2.442-2.167 1.938-4.284 3.13-6.566.214-.409.6-.731.795-1.146.358-.756.632-1.55.942-2.33-.873.102-1.848-.01-2.604.349-3.374 1.59-6.75 3.194-9.467 5.867-12.693 12.463-17.085 29.153-22.81 45.124-.618 1.715.49 4.076.86 6.123 2.767 15.317 16.248 37.558 22.518 45.337 6.082 7.541 9.01 10.868 10.79 5.717 4.651-13.493.5-27.543 22.843-32.01 5.425-1.34 10.928-2.664 16.055-4.81 7.884-3.297 14.354-8.626 18.969-15.965.734-1.171 1.571-2.535.548-3.869-1.042-1.351-2.526-.812-3.857-.367-2.637.888-5.262 1.812-6.993 2.411-8.017.12-10.392-3.23-8.312-10.169zm332.546 18.942c-.636 13.685-6.774 23.201-13.56 32.209-3.823 5.072-8.883 9.206-13.294 13.85-2.369 2.493-3.889 2.532-4.774-1.104-.732-3.005-1.879-5.934-2.333-8.974-2.062-13.749-11.073-21.043-23.298-25.324-9.423-3.303-18.836-6.539-25.613-14.486-1.002-1.175-2.29-2.177-3.022-3.496-1.548-2.796-5.368-5.852-3.315-8.69 2.433-3.37 5.338.99 7.993 1.887 3.667 1.234 7.129 1.174 10.1-1.042 2.637-1.969.951-4.967.515-7.436-2.52-14.185-7.364-27.256-18.38-37.278-1.863-1.698-3.687-3.709-1.742-6.256 1.683-2.206 4.115-3.17 7.065-2.363 8.646 2.36 15.48 7.325 20.992 14.285.834 1.053 1.364 3.414 3.324 1.695 1.273-1.117.006-2.511-.831-3.426-3.429-3.745-6.963-7.394-10.45-11.088-.737-.78-1.968-1.403-1.67-2.658.37-1.538 1.842-1.722 3.152-1.854 5.388-.551 9.97 1.246 13.938 4.85 3.79 3.44 6.795 7.517 9.733 11.671.792 1.114 1.58 3.468 3.263 2.23 1.602-1.176-.388-2.784-1.093-3.946-1.475-2.444-3.284-4.69-4.982-7-.777-1.053-2.216-2.287-1.439-3.407.985-1.415 2.938-.897 4.278-.172 4.278 2.321 8.423 4.871 11.34 8.935 1.286 1.792 2.493 3.643 3.8 5.42 1.146 1.568 2.838 4.69 3.946 3.798 2.3-1.848-.894-3.591-1.665-5.428-.578-1.381-1.911-3.79-1.676-3.952 1.878-1.298 3.025.758 4.422 1.53 3.14 1.724 5.527 4.247 7.655 7.176 11.19 15.416 11.9 34.325 17.62 49.844zM533.25 233.2c-5.805 4.624-11.314 9.425-15.766 15-8.592 10.757-13.493 22.588-15.592 35.226-.758 4.56-.496 4.618 5.296 4.645 17.758.078 35.517.108 53.279.22 44.036.277 88.076.587 132.113.882 1.451.012 2.899-.003 4.35.003 1.587.006 2.312-.63 2.186-1.909-.085-.879-.1-1.764-.262-2.634-1.626-8.71-3.932-17.193-8.36-25.396-9.029-16.714-23.861-29.265-42.637-38.504-17.861-8.784-37.54-12.129-58.505-8.983-16.049 2.405-31.02 6.722-44.413 14.378-2.92 1.67-10.711 6.292-11.69 7.072zm-19.349-8.592c-.725.864-.686 1.881.12 2.577 2.298 1.984 4.658 3.928 7.162 5.717.976.698 2.445.773 3.493-.148 1.207-1.057 1.14-2.309-.037-3.311-2.056-1.753-4.235-3.402-6.42-5.043-.522-.388-1.262-.557-1.56-.683-1.385-.085-2.195.22-2.758.89zm87.694-26.564c-.018 1.393-.138 2.79-.03 4.178.094 1.21.967 2.017 2.439 2.08 1.469.06 2.522-.722 2.718-1.848.506-2.908.572-5.858-.1-8.76-.276-1.19-1.378-1.786-2.856-1.632-1.24.126-1.99.819-2.098 1.812-.148 1.382-.073 2.779-.09 4.17h.017zm42.529 12.746c2.131-2.875 4.25-5.774 4.9-9.218.148-.789-.354-1.523-1.248-1.918-1.09-.484-2.379-.44-2.978.364-2.131 2.87-4.166 5.835-4.88 9.233-.244 1.163.756 2.02 1.822 2.153 1.213.084 2.002-.1 2.384-.614zm-107.578-1.508c-.894-.301-1.776-.244-2.526.355-.891.72-1.183 1.653-.723 2.553 1.473 2.872 3.845 5.268 6.021 7.749.69.785 1.948.788 3.029.379.912-.346 1.258-1.05 1.37-1.755.018-1.623-5.488-8.715-7.171-9.281zm150.727 35.393c-.359.822-.115 1.542.568 2.14.822.726 1.837 1.115 2.969.645 3.125-1.3 6.174-2.733 8.841-4.648.828-.59 1.244-1.53.666-2.55-.44-.77-1.156-1.18-2.096-1.36-1.62-.148-10.386 4.479-10.948 5.773zm-197.567 11.112c-.433.948-.349 2.002.575 2.562 3.267 1.978 6.894 3.396 10.772 4.208 1.005.211 2.035-.53 2.486-1.496.392-.828.081-1.625-.638-2.101-3.185-2.098-6.987-3.173-10.254-4.522-1.556-.012-2.49.355-2.94 1.349zm23.003-11.41c-3.02-2.498-6.147-4.982-10.211-6.102-1.87-.515-3.604 1.788-2.327 3.122 2.567 2.68 5.945 4.633 9.62 6.045 1.5.572 2.84-.178 3.231-1.84-.075-.343.006-.96-.313-1.225zm202.777 33.958c1.295-.506 1.894-1.484 1.41-2.68-.473-1.158-1.68-1.751-3.005-1.525-3.354.58-6.692 1.246-9.97 2.068-1.482.37-2.43 1.424-1.858 2.89.454 1.165 1.601 1.601 3.086 1.625 3.453-.563 7.023-1.09 10.337-2.378zm-5.686-19.751c.806-.464.984-1.334.593-2.102-.557-1.083-1.635-1.863-3.014-1.55a43.554 43.554 0 0 0-10.407 3.817c-.924.476-1.327 1.46-.921 2.463.394.972 1.255 1.48 2.788 1.683 3.489-1.319 7.493-2.318 10.96-4.311zm-82.014-65.71c-1.695-.632-2.89.278-3.492 1.452-1.454 2.842-2.456 5.825-2.932 8.91-.214 1.376.4 2.526 2.128 2.806 1.72.274 2.755-.623 3.188-1.935.891-2.683 1.677-5.389 2.785-8.999.09-.394-.072-1.64-1.677-2.233zm39.512 16.633c-1.357-.734-2.465-.228-3.435.581-2.643 2.21-4.25 5.058-6.246 7.659-.84 1.093-.831 2.514.758 3.281 1.49.72 2.857.253 3.818-.909a438.246 438.246 0 0 0 5.918-7.3c.29-.37.328-.882.446-1.204-.046-.967-.422-1.65-1.259-2.108zm15.387 13.466c-3.053 1.948-5.958 4.1-8.31 6.704-.987 1.087-1.18 2.336.103 3.369 1.31 1.057 2.685.726 3.88-.223 2.53-2.01 5.019-4.055 7.536-6.075.69-.557 1.15-1.192 1.183-2.498.012-1.352-2.475-2.5-4.392-1.277zm-185.928 55.425c.213-1.719-1.512-2.26-3.246-2.546-3.043-.506-6.066-1.111-9.118-1.569-1.764-.268-3.396.054-3.745 1.845-.295 1.485.783 2.36 2.363 2.68 3.197.647 6.415 1.204 9.173 1.713 2.498.222 4.338-.217 4.573-2.123zm66.29-68.782c-1.295-3.083-2.851-6.096-4.483-9.065-.656-1.192-1.969-1.969-3.622-1.192-1.487.705-1.86 1.849-1.192 3.206 1.349 2.74 2.683 5.488 4.077 8.21.541 1.056 1.472 1.782 3.031 1.848 2.005-.25 2.827-1.493 2.189-3.007zm19.086-14.104c-.334-1.505-.988-2.86-3.113-2.547-1.954.286-2.595 1.7-2.327 3.212.49 2.773 1.159 5.527 1.848 8.273.386 1.526 1.427 2.664 3.444 2.279 1.698-.325 2.068-1.587 1.963-3.276-.557-2.43-1.204-5.184-1.815-7.941zm134.958 90c-3.293-.048-6.587-.126-9.88-.132-1.58-.003-3.104.442-3.152 1.99-.048 1.601 1.574 1.95 3.082 2.068 1.641.126 3.294.102 4.94.186 4.751.241 9.499.542 14.252.74 1.936.085 4.57.582 4.916-1.736.394-2.62-2.444-2.177-4.296-2.333-3.278-.277-6.575-.404-9.862-.593v-.19zm-14.27-14.959c6.614-1.797 13.234-3.585 19.833-5.425 1.761-.493 3.887-1.228 3.218-3.146-.818-2.35-3.293-1.529-5.114-1.03-6.084 1.669-12.117 3.469-18.156 5.257-1.027.304-2.053.701-2.939 1.228-.963.578-1.375 1.481-.785 2.463.47.78 1.388.94 2.462.94.416-.08.964-.145 1.481-.287zM479.303 288.92c4.001.06 8.008.165 12.009.153 1.484-.006 3.164-.343 3.248-1.89.096-1.785-1.568-2.363-3.339-2.333-7.643.123-15.287.31-22.927.505-1.394.037-2.595.57-2.613 1.885-.015 1.448 1.358 1.647 2.697 1.67 3.64.064 7.28.112 10.922.163 0-.05 0-.102.003-.153zm17.87-23.232a4042.001 4042.001 0 0 0-19.947-6.328 9.853 9.853 0 0 0-2.12-.412c-1.146-.096-2.21.13-2.742 1.108-.66 1.21-.003 2.188 1.16 2.775 1.24.624 2.621 1.06 3.988 1.463 5.331 1.58 10.681 3.107 16.015 4.676 1.376.403 2.689.984 4.089 1.3 1.833.413 2.679-.494 2.953-2.08-.244-1.593-1.876-2.017-3.396-2.502zm218.068-23.463c-6.666 2.866-13.264 5.834-19.884 8.772-.645.286-1.274.611-1.858.976-1.102.69-1.89 1.583-1.255 2.784.665 1.259 1.996 1.144 3.29.852.35-.078.687-.213 1.009-.352 7.15-3.074 14.296-6.15 21.45-9.224 1.254-.536 1.959-1.349 1.857-2.592-.17-1.8-1.945-2.366-4.61-1.216zm-29.006-2.306c6.367-3.878 12.511-8.029 19.17-11.557 1.078-.57 2.138-1.216 2.632-2.291.689-1.502-.603-2.999-2.424-2.698-.858.142-1.677.575-2.438.979-7.135 3.76-13.746 8.15-20.477 12.397-.714.454-1.418 1.02-1.864 1.665-.966 1.4.166 2.947 2.026 2.914 1.37-.045 2.345-.783 3.375-1.41zm-181.087 10.536c-4.468-2.125-8.965-4.205-13.445-6.315a777.66 777.66 0 0 1-8.607-4.1c-1.31-.633-2.562-.53-3.429.442-1.02 1.14-.758 2.369.503 3.326.53.407 1.24.645 1.882.94 6.752 3.103 13.501 6.207 20.263 9.299.96.44 1.93.978 2.968 1.162 1.897.331 2.532-.783 2.818-2.285-.394-1.24-1.692-1.87-2.953-2.469zm13.715-13.811c-7.312-4.959-14.606-9.935-22.385-14.357-1.292-.738-2.76-1.207-3.932-.024-1.412 1.424-.289 2.598.948 3.633a8.56 8.56 0 0 0 1.292.867c6.888 3.875 13.252 8.348 19.806 12.608 1.014.662 2.004 1.439 3.36 1.47 1.447.03 2.44-.516 2.564-1.729-.036-1.19-.786-1.881-1.653-2.468zm54.652-32.077c-2.255-6.912-4.519-13.82-6.77-20.733-.395-1.207-.762-2.435-1.786-3.371-.632-.578-1.463-.964-2.453-.732-1.16.271-1.939.942-1.996 1.963-.045.753.15 1.544.394 2.282a3241.424 3241.424 0 0 0 7.201 21.6c.298.89.693 1.791 1.237 2.586.581.843 1.563 1.39 2.761 1.14 1.439-.3 1.99-1.243 1.98-2.826-.12-.407-.327-1.162-.568-1.909zm98.465 20.778c6.16-5.759 12.515-11.346 19.27-16.6 3.023-2.35 3.71-3.88 2.084-4.948-2.538-1.665-4.05.373-5.549 1.517-7.222 5.506-13.914 11.476-20.362 17.641-.714.68-1.484 1.475-1.72 2.324-.424 1.514.657 2.3 2.358 2.475 1.848-.193 2.824-1.382 3.92-2.409zm-76.847-25.962c-.699-6.845-1.346-13.697-2.122-20.537-.208-1.821-.38-4.239-3.417-3.953-3.122.292-2.373 2.677-2.195 4.495.702 7.159 1.433 14.315 2.2 21.47.115 1.078.371 2.17.76 3.2.42 1.114 1.375 1.945 2.847 1.765 1.722-.211 2.42-1.283 2.31-2.707-.1-1.246-.32-2.483-.485-3.727.033 0 .069-.003.102-.006zm59.537 13.833c4.48-6.821 9.574-13.312 14.52-19.884.59-.782 1.18-1.598 1.532-2.471.388-.958.024-1.876-1.008-2.463-1.054-.602-2.14-.418-3.032.238a9.116 9.116 0 0 0-1.773 1.764c-5.344 6.912-10.59 13.875-15.335 21.106-.542.825-1.132 1.644-1.081 2.61.06 1.226.716 2.087 2.327 2.144 2.156-.205 2.98-1.716 3.85-3.044zm-32.847-35.409c.025-.313.073-.623.076-.933.015-1.532-.458-2.944-2.505-3.064-1.996-.118-2.758 1.213-3.086 2.7-.102.458-.111.93-.192 1.388-1.376 7.688-2.758 15.377-4.143 23.063-.081.46-.24.915-.277 1.379-.108 1.42.575 2.471 2.25 2.775 1.444.262 2.426-.454 2.992-1.535.295-.563.52-1.171.635-1.782 1.469-7.99 2.917-15.983 4.37-23.976-.041-.006-.08-.012-.12-.015zm-87.179 50.416c2.095-1.779 1.903-3.377-.051-5.277-6.668-6.485-13.39-12.918-20.715-18.872a17.114 17.114 0 0 0-3.04-1.987c-1.033-.521-2.144-.347-2.993.421-.888.798-.768 1.734-.141 2.58.481.653 1.098 1.258 1.758 1.788 7.219 5.82 13.977 12.015 20.398 18.475 1.37 1.38 2.966 2.255 4.908 2.791 0 0-.136.087-.124.081zm-2.827-38.497c.03.731.47 1.517.943 2.164 5.41 7.451 10.747 14.935 15.663 22.633.262.41.58.8.936 1.156 1.057 1.065 2.37 1.598 3.823.71 1.202-.731 1.235-1.9.633-2.965a64.491 64.491 0 0 0-2.872-4.54 2962.624 2962.624 0 0 0-12.861-18.592c-.924-1.328-1.836-2.773-4.022-2.821-1.517.202-2.294 1.054-2.243 2.255zm105.339 15.6c3.546-7.373 6.737-14.869 10.705-22.09 1.634-2.981 1.333-4.857-.696-5.22-2.989-.534-3.627 1.673-4.434 3.32-3.603 7.348-7.105 14.736-10.603 22.123-.403.852-.734 1.789-.773 2.7-.055 1.232.821 2.015 2.384 2.289 2.21-.112 2.724-1.677 3.417-3.122zm162.612 26.287l-6.024-10.997c-.783-1.322-1.96-2.195-3.531-2.616-1.503-.4-2.942-.256-4.332.506-1.391.761-2.334 1.92-2.8 3.516-.467 1.598-.298 3.08.463 4.473l5.898 10.769 10.326-5.65zm5.641 3.91l-26.928 14.746a3.08 3.08 0 0 1-4.17-1.22 3.079 3.079 0 0 1 1.22-4.166l8.528-4.67-4.055-7.405-16.184-4.73c-2.472-.571-3.007-4.536-.578-5.635.674-.367 1.451-.442 2.303-.27l11.277 3.335c-.367-2.48-.02-4.832 1.063-7.114 1.126-2.309 2.803-4.046 5.045-5.274 2.872-1.572 5.883-1.936 9.008-1.024 3.17.891 5.599 2.77 7.192 5.573l7.496 13.688a3.082 3.082 0 0 1-1.217 4.167zm-47.517-57.52l-15.53 3.938 11.183 11.457 4.347-15.395zm7.352-3.456l-9.64 34.217c-.222.575-.481.972-.81 1.294a3.082 3.082 0 0 1-4.34-.054c-.822-.843-1.063-1.966-.648-3.372l1.813-6.418-16.118-16.512-6.458 1.659c-1.415.379-2.498.15-3.32-.693a3.075 3.075 0 0 1 .051-4.338c.403-.394.804-.644 1.313-.783l34.44-8.808c2.32-.479 4.25 1.5 3.717 3.808zm-38.473-34.47a3.079 3.079 0 0 0-4.185 1.16l-6.051 10.68-19.14-10.843 6.05-10.681a3.079 3.079 0 0 0-1.155-4.185 3.08 3.08 0 0 0-4.185 1.156l-15.13 26.71a3.078 3.078 0 0 0 1.156 4.184 3.08 3.08 0 0 0 4.184-1.16l6.051-10.683 19.14 10.843-6.05 10.684a3.08 3.08 0 0 0 1.156 4.185c1.469.83 3.35.31 4.184-1.16l15.13-26.705a3.077 3.077 0 0 0-1.155-4.184zm-55.227-26a3.08 3.08 0 0 0-3.733 2.221l-1.888 7.439c-.668 2.631-2.176 4.624-4.476 5.994-2.303 1.37-4.711 1.71-7.34 1.041-2.63-.668-4.636-2.125-6.005-4.428-1.37-2.3-1.698-4.76-1.03-7.388l1.888-7.442a3.08 3.08 0 0 0-2.222-3.732 3.08 3.08 0 0 0-3.733 2.221l-1.888 7.442c-1.068 4.218-.5 8.216 1.759 12.012 2.257 3.793 5.503 6.198 9.72 7.27 3.522.894 6.924.593 10.245-.834l-2.58 10.17a3.079 3.079 0 0 0 2.219 3.732 3.08 3.08 0 0 0 3.732-2.221l7.554-29.768a3.077 3.077 0 0 0-2.222-3.73zm-53.104-3.523a3.08 3.08 0 0 0 3.119-3.022 3.078 3.078 0 0 0-3.02-3.12L592.953 104a3.08 3.08 0 0 0-3.121 3.02l-.494 30.703a3.074 3.074 0 0 0 3.02 3.12l25.585.415a3.08 3.08 0 0 0 3.119-3.023 3.08 3.08 0 0 0-3.02-3.119l-22.515-.364.148-9.212 17.397.283a3.083 3.083 0 0 0 3.122-3.022 3.08 3.08 0 0 0-3.02-3.12l-17.4-.28.15-9.211 22.516.364zm-55.076-.171a3.084 3.084 0 0 0-3.77-2.165 3.084 3.084 0 0 0-2.164 3.77l3.21 11.86-21.254 5.75-3.21-11.864a3.078 3.078 0 0 0-3.766-2.161 3.08 3.08 0 0 0-2.164 3.766l8.02 29.655a3.082 3.082 0 0 0 3.769 2.165 3.08 3.08 0 0 0 2.161-3.77l-3.206-11.86 21.254-5.747 3.209 11.861a3.08 3.08 0 0 0 3.766 2.164 3.084 3.084 0 0 0 2.165-3.769l-8.02-29.655zm-57.68 19.342a3.08 3.08 0 0 0-4.221-1.03l-19.198 11.678c-1.574.957-1.746 2.74-.939 4.464l8.453 18.821c1.656 3.607 1.605 6.873-.737 8.538-1.183.72-1.487 2.58-.635 3.98a3.077 3.077 0 0 0 4.22 1.026c5.028-3.055 5.747-8.766 2.135-17.171l-3.49-7.704-3.585-8.062 14.345-8.724 14.363 23.614a3.077 3.077 0 0 0 4.217 1.026 3.08 3.08 0 0 0 1.03-4.217l-15.958-26.24zm-39.395 58.095c-.126-3.402-1.433-6.286-3.908-8.586-2.477-2.297-5.415-3.347-8.814-3.218-3.402.127-6.253 1.394-8.55 3.872-2.3 2.474-3.38 5.452-3.254 8.85.126 3.4 1.427 6.214 3.904 8.51 2.478 2.3 5.416 3.42 8.818 3.294 3.402-.13 6.247-1.466 8.547-3.943 2.297-2.475 3.383-5.38 3.257-8.779zm.27-13.09c3.716 3.45 5.688 7.723 5.88 12.858.19 5.064-1.457 9.474-4.904 13.19-3.447 3.714-7.721 5.686-12.821 5.915-5.1.153-9.51-1.494-13.225-4.94-3.715-3.447-5.687-7.72-5.876-12.783-.193-5.139 1.454-9.546 4.9-13.264 3.448-3.712 7.722-5.684 12.822-5.84 5.1-.226 9.51 1.418 13.225 4.865zm-23.944 48.327c1.445 4.856.951 9.534-1.46 13.99-2.409 4.458-6.054 7.433-10.934 8.926-4.898 1.42-9.58.927-14.035-1.481-4.455-2.412-7.43-6.057-8.878-10.913-1.469-4.925-.972-9.603 1.436-14.059 2.264-4.187 5.771-7.12 10.516-8.685 1.09-.4 2.005-.37 2.77.045a3.075 3.075 0 0 1 1.24 4.16c-.416.765-1.05 1.295-1.813 1.52-3.236.928-5.68 2.864-7.309 5.88-1.607 2.972-1.915 6.123-.945 9.384.972 3.26 2.932 5.656 5.903 7.264 2.975 1.608 6.1 1.96 9.36.987 3.26-.972 5.68-2.977 7.291-5.948 1.605-2.972 1.933-6.051.96-9.312-.496-1.664.43-3.374 2.072-3.826 1.616-.52 3.33.404 3.826 2.068zm242.106 180.84h-10.332c-1.265.043-2.363.549-3.29 1.52-.886.928-1.35 2.024-1.35 3.33 0 1.307.464 2.448 1.434 3.417.97.97 2.107 1.433 3.417 1.433h10.12v-9.7zm5.057-2.528v25.3a2.537 2.537 0 0 1-2.529 2.531 2.537 2.537 0 0 1-2.528-2.531v-8.011h-6.96l-9.827 9.826c-1.39 1.56-4.467.38-4.298-1.815 0-.633.252-1.223.716-1.77l6.873-6.831c-1.939-.72-3.498-1.9-4.724-3.586-1.222-1.728-1.812-3.627-1.812-5.735 0-2.697.927-5.018 2.824-6.914 1.9-1.94 4.218-2.954 6.876-2.996h12.86a2.537 2.537 0 0 1 2.53 2.532zm-39.614-2.532a2.537 2.537 0 0 0-2.532 2.532v10.121H629.5v-10.121a2.537 2.537 0 0 0-2.529-2.532 2.537 2.537 0 0 0-2.531 2.532v25.3a2.537 2.537 0 0 0 2.531 2.531 2.537 2.537 0 0 0 2.53-2.531v-10.121h18.131v10.12a2.537 2.537 0 0 0 2.532 2.532 2.537 2.537 0 0 0 2.529-2.531v-25.3a2.537 2.537 0 0 0-2.53-2.532zM601.9 414.02l10.841-10.838c1.602-1.601.418-4.344-1.773-4.344-.632 0-1.222.256-1.77.717l-10.88 10.882-10.88-10.882c-.548-.461-1.14-.717-1.773-.717a2.537 2.537 0 0 0-2.529 2.532c0 .716.253 1.349.717 1.812l10.88 10.838-10.88 10.88c-.97.969-.97 2.57 0 3.585 1.011.97 2.613.97 3.585 0l10.88-10.883 10.838 10.883c.463.464 1.095.716 1.812.716a2.537 2.537 0 0 0 2.529-2.531c0-.675-.253-1.265-.756-1.77l-10.84-10.88zm-29.665-14.8c-1.222-.72-2.784-.34-3.459.883l-7.547 13.074-11.217-13.409c-.846-1.14-2.49-1.225-3.543-.34-1.054.973-1.264 2.406-.295 3.543l12.397 14.803-1.812 3.16c-.675 1.139-.885 1.687-2.36 2.575-.72.421-1.52.632-2.406.632a2.539 2.539 0 0 0-2.532 2.529 2.54 2.54 0 0 0 2.532 2.531c4.26 0 7-2.068 9.363-6.114l11.807-20.453c.674-1.138.253-2.7-.928-3.414zm-37.172 3.92l-10.877 10.88 10.837 10.88c.506.505.759 1.095.759 1.77.126 2.194-2.911 3.374-4.302 1.815l-11.933-11.936h-7.382v10.12a2.537 2.537 0 0 1-2.529 2.532 2.537 2.537 0 0 1-2.528-2.531v-25.3a2.537 2.537 0 0 1 2.528-2.532 2.537 2.537 0 0 1 2.53 2.532v10.121h7.38l11.934-11.936c1.39-1.56 4.428-.38 4.302 1.815 0 .632-.253 1.222-.72 1.77zm-69.18 58.734c2.173-.506 4.196-.867 6.15-1.46 2.258-.69 4.874 1.327 6.882-.97-2.595-2.044-5.567-2.203-8.613-1.535-1.734.382-3.435.984-5.079 1.659-.635.262-1.583 1.093-1.508 1.502.238 1.334 1.454.804 2.168.804zm4.675 6.707c2.839-1.045 7.971 1.322 8.66-3.11.248-1.598-5.824-1.077-9.012-1.038-2.165.024-5.546.087-5.362 2.857.126 1.9 3.465.92 5.714 1.291zm215.349 5.744c-.075-1.692-.458-2.023-1.728-.744-5.47 5.497-9.486 11.919-11.145 19.601-.27 1.247.081 2.734 1.662 2.942 1.216.162 1.394-1.174 1.776-2.032 1.86-4.173 3.625-8.388 5.563-12.52 1.183-2.524 2.622-4.929 3.872-7.247zm-172.842-2.857c-9.742 1.132-19.24 3.257-28.346 6.96-1.948.792-3.583 2.038-4.675 3.866-.23.385-.347 1.02-.196 1.411.412 1.045 1.288.66 1.824.214 9.357-7.809 21.095-7.195 32.107-9.158 1.345-.24 3.808.584 3.7-1.345-.124-2.174-2.704-1.72-4.414-1.948zm213.44-13.82c-.508.252-1.09.366-1.39.719-4.335 5.081-8.508 10.292-11.729 16.178-.457.834-.882 1.984.286 2.715 1.25.783 2.583.398 3.598-.355 5.292-3.923 9.154-8.986 11.186-15.266.491-1.52.765-3.712-1.95-3.992zm-29.622 16.827c-.452-1.48-.256-3.13-1.821-4.076-1.53-.924-2.547.19-3.167 1.198-4.435 7.217-8.695 14.54-11.642 22.519-.289.785.223 1.866.361 2.808.693-.237 1.58-.274 2.048-.74 6.237-6.202 11.514-13.047 14.22-21.709zm-55.609 35.476c6.46-.521 23.659-17.744 23.602-23.789-.027-2.83-1.683-5.103-4.224-2.625-7.496 7.312-14.908 14.763-21.17 23.207-1.345 1.822-1.125 3.45 1.792 3.207zm-13.186-17.87c-.277-3.426-2.36-3.161-4.305-1.951-7.878 4.913-15.72 9.928-20.784 18.065-.855 1.373-2.83 2.845-1.12 4.688 1.135 1.222 3.017.897 4.405.382 9.576-3.534 16.726-9.85 21.247-19.044.331-.674.392-1.484.557-2.14zm-134.65-1.55c8.046-.464 15.26-2.123 22.069-5.287 2.158-1.006 4.226-2.83 3.398-5.335-.83-2.516-3.507-1.36-5.376-1.14-7.093.848-14.345.909-21.16 3.314-3.077 1.087-8.135 2.496-7.644 5.358.686 4.016 5.876 2.586 8.712 3.09zm70.085 23.643c9.736-2.188 18.806-6.015 25.917-13.547 1.234-1.306 2.14-3.034 1.319-4.9-.638-1.443-2.038-1.208-3.312-.856-9.757 2.698-18.574 7.132-25.908 14.219-1.023.99-2.468 2.125-1.535 3.898.69 1.313 2.056 1.3 3.52 1.186zm-33.078-10.09c7.152-.666 16.075-2.668 23.984-7.921 1.43-.949 3.5-2.044 2.947-4.025-.623-2.234-2.998-1.388-4.612-1.307-10.085.506-19.64 3.369-28.988 6.957-1.776.68-4.521 1.463-3.84 3.977.583 2.162 3.205 2.204 5.28 2.31 1.02.05 2.046.008 5.229.008zm118.307-16.998c-3.49 5.87-9.904 8.863-13.941 14.173-1.024 1.35-2.948 3.3-1.286 4.67 2.402 1.98 2.466-1.418 3.465-2.436a179.752 179.752 0 0 0 8.872-9.672c1.571-1.849 4.163-3.444 2.706-6.57.048.121.1.239.148.359.012-.175.027-.346.036-.524zm-123.54 7.117c3.303-3.417 8.03-2.878 12.051-4.296 3.471-1.225 7.653-.4 10.422-3.643-3.841-.629-7.68-.18-11.153 1.304-4.007 1.71-10.103.126-11.31 6.632-.696-.024-.856-2.095-1.97-.512l1.96.515zm86.539-1.352c.237-.081.47-.165.704-.247-.244.187-.488.374-.723.524.133.018.262.036.392.051-.124-.108-.247-.22-.373-.328zm-5.814 7.012c-.102-1.184-.21-2.367-.316-3.553 1.174-1.562 2.153-.376 3.173.223a27.793 27.793 0 0 0-.024-.512c.021.133.045.265.06.38-1.09-.022-2.18-.04-3.263-.055.485 1.132 1.153 2.243.367 3.514-1.12.012-2.462-.274-2.182 1.62-4.796-1.807-5.865 2.703-8.065 4.996-1.138 1.19-1.843 3.736.177 4.612 1.56.672 2.048-1.752 2.875-2.95 1.596-2.306 3.264-4.567 4.856-6.918.551-.852 1.174-1.574 2.342-1.357zm-27.584 26.236c-22.461-.025-56.657-8.61-88.709-24.256-24.192-11.81-40.69-31.937-51.53-56.503-1.963-4.443-1.932-9.805 2.674-12.48 5.433-3.153 11.77-3.987 17.541-.185 11.657 7.68 24.15 13.833 36.622 19.975 24.623 12.123 51.25 16.876 78.206 19.974 38.178 4.386 74.96-1.665 110.685-15.317 10.386-3.97 20.374-8.682 29.776-14.637 5.226-3.311 10.54-6.5 16.413-8.57 8.712-3.071 18.908-.01 24.032 7.146 2.79 3.899.584 14.88-4.946 19.908-12.132 11.034-23.427 23.105-38.284 30.854-13.478 7.03-26.714 14.532-40.67 20.595-24.994 10.858-51.121 15.528-91.81 13.496z"/>
    </g>
</svg>
