<svg xmlns="http://www.w3.org/2000/svg" width="54" height="67" viewBox="0 0 54 67">
    <g fill="#000" fill-rule="evenodd">
        <path d="M15.683 18.811h22.634c2.01 0 3.64-1.634 3.64-3.652a3.646 3.646 0 0 0-3.64-3.651H15.683a3.646 3.646 0 0 0-3.64 3.651 3.646 3.646 0 0 0 3.64 3.652zM10.386 26.025h21.209v2.695H10.386zM10.386 35.07h21.209v2.695H10.386zM10.386 44.116h21.209v2.695H10.386zM36.554 26.025h6.7v2.695h-6.7zM36.554 35.07h6.7v2.695h-6.7zM36.554 44.116h6.7v2.695h-6.7zM36.554 53.162h6.7v2.694h-6.7zM10.566 49.682h1.266v1.27h-1.266zM18.832 49.682h2.333v1.27h-2.333zM37.501 49.682h2.333v1.27h-2.333zM14.166 49.682H16.5v1.27h-2.334zM23.5 49.682h2.333v1.27H23.5zM32.833 49.682h2.334v1.27h-2.334zM28.167 49.682H30.5v1.27h-2.333zM42.168 49.682h1.266v1.27h-1.266z"/>
        <path d="M49.528 58.73h-.732V4.718L44.636.545l-3.528 3.538L37.58.545l-3.526 3.538L30.526.545 27 4.083 23.473.545l-3.527 3.538L16.419.545l-3.527 3.538L9.365.545 5.204 4.72v54.01h-.732A3.861 3.861 0 0 0 .621 62.59a3.862 3.862 0 0 0 3.851 3.864h45.056a3.862 3.862 0 0 0 3.851-3.864 3.86 3.86 0 0 0-3.851-3.862zM6.47 5.244L9.364 2.34l3.527 3.539 3.527-3.539 3.527 3.539 3.527-3.539L27 5.88l3.527-3.539 3.528 3.539L37.58 2.34 41.11 5.88l3.527-3.539 2.894 2.904v56.711H6.47V5.245zm43.058 59.94H4.472a2.592 2.592 0 0 1-2.585-2.594c0-1.43 1.16-2.593 2.585-2.593h.732v3.228h43.592v-3.228h.732a2.592 2.592 0 0 1 2.585 2.593c0 1.43-1.16 2.594-2.585 2.594z"/>
    </g>
</svg>
