<svg xmlns="http://www.w3.org/2000/svg" xmlns:xlink="http://www.w3.org/1999/xlink" width="28" height="28" viewBox="0 0 28 28">
    <defs>
        <ellipse id="a" cx="13.472" cy="13.472" rx="13.472" ry="13.472"/>
        <mask id="b" width="26.944" height="26.944" x="0" y="0" fill="#fff">
            <use xlink:href="#a"/>
        </mask>
    </defs>
    <g fill="none" fill-rule="evenodd" transform="translate(.186 .612)">
        <path d="M0 0h26.944v26.944H0z"/>
        <use stroke="#000" stroke-width="2" mask="url(#b)" xlink:href="#a"/>
        <path fill="#000" d="M13.917 18.329s.276-.03.418-.18c.13-.136.125-.394.125-.394s-.018-1.205.552-1.383c.562-.174 1.283 1.165 2.048 1.68.578.39 1.017.305 1.017.305l2.045-.028s1.07-.065.562-.89c-.042-.068-.296-.61-1.52-1.727-1.282-1.167-1.11-.979.434-3 .94-1.23 1.316-1.98 1.198-2.302-.111-.307-.803-.225-.803-.225l-2.302.013s-.17-.022-.297.052c-.123.073-.204.242-.204.242s-.364.952-.85 1.762c-1.025 1.708-1.434 1.799-1.602 1.693-.39-.248-.293-.994-.293-1.524 0-1.656.256-2.346-.498-2.524-.25-.06-.434-.099-1.074-.105-.821-.009-1.516.002-1.91.191-.262.126-.464.407-.34.423.151.02.496.091.678.335.236.315.228 1.023.228 1.023s.135 1.949-.317 2.19c-.31.167-.735-.172-1.65-1.722-.467-.794-.82-1.672-.82-1.672s-.069-.164-.191-.252c-.147-.106-.353-.14-.353-.14l-2.188.015s-.328.008-.449.149c-.107.124-.008.382-.008.382s1.712 3.933 3.652 5.915c1.778 1.817 3.797 1.698 3.797 1.698h.915z"/>
    </g>
</svg>
